<?xml version="1.0" encoding="utf-8"?>
<!-- Generator: Adobe Illustrator 19.0.0, SVG Export Plug-In . SVG Version: 6.00 Build 0)  -->
<svg version="1.1" id="Warstwa_1" xmlns="http://www.w3.org/2000/svg" xmlns:xlink="http://www.w3.org/1999/xlink" x="0px" y="0px"
	 viewBox="0 0 130 400" style="enable-background:new 0 0 130 400;" xml:space="preserve">
<style type="text/css">
	.st0{fill:#102738;}
	.st1{fill:#FFFFFF;}
</style>
<g id="XMLID_2_">
	<path id="XMLID_10_" class="st0" d="M85.4,151.2l-20.9,17.2l-0.1,0c-0.1,0-0.1,0.1-0.2,0.1l-15.7-12.2l0,0l12.1,16
		c0,2.2,1.8,4,3.9,4c2.2,0,4-1.8,4-4c0,0,0-0.1,0-0.1L85.4,151.2z M85.4,151.2l-20.9,17.2l-0.1,0c-0.1,0-0.1,0.1-0.2,0.1l-15.7-12.2
		l0,0l12.1,16c0,2.2,1.8,4,3.9,4c2.2,0,4-1.8,4-4c0,0,0-0.1,0-0.1L85.4,151.2z M85.4,151.2l-20.9,17.2l-0.1,0
		c-0.1,0-0.1,0.1-0.2,0.1l-15.7-12.2l0,0l12.1,16c0,2.2,1.8,4,3.9,4c2.2,0,4-1.8,4-4c0,0,0-0.1,0-0.1L85.4,151.2z M85.4,151.2
		l-20.9,17.2l-0.1,0c-0.1,0-0.1,0.1-0.2,0.1l-15.7-12.2l0,0l12.1,16c0,2.2,1.8,4,3.9,4c2.2,0,4-1.8,4-4c0,0,0-0.1,0-0.1L85.4,151.2z
		 M85.4,151.2l-20.9,17.2l-0.1,0c-0.1,0-0.1,0.1-0.2,0.1l-15.7-12.2l0,0l12.1,16c0,2.2,1.8,4,3.9,4c2.2,0,4-1.8,4-4c0,0,0-0.1,0-0.1
		L85.4,151.2z"/>
	<path id="XMLID_7_" class="st0" d="M107.7,375.2V207.7h3.2v-68.3h1.1v-5.3h-7.5v-7.9l-17.6-33H87V70.3h-0.3
		c-1.4-3.2-20-57.1-21.3-65.3h-1.8c-1.3,8.3-20,62.1-21.3,65.3h-0.4v22.9l-17.5,33h0v7.9h-7.6v5.3H18v68.3h3.2v167.5H7.5v20.1h113.9
		v-20.1H107.7z M64.4,206.1c-18.6,0-33.8-15.1-33.8-33.8c0-18.6,15.1-33.8,33.8-33.8c18.6,0,33.8,15.1,33.8,33.8
		S83.1,206.1,64.4,206.1z"/>
	<path id="XMLID_3_" class="st1" d="M64.4,138.5c-18.6,0-33.8,15.1-33.8,33.8c0,18.7,15.1,33.8,33.8,33.8
		c18.7,0,33.8-15.1,33.8-33.8S83,138.5,64.4,138.5z M68.4,172.3c0,2.2-1.8,4-4,4c-2.1,0-3.9-1.8-3.9-4l-12.1-16l0,0l15.7,12.2
		c0.1,0,0.2-0.1,0.2-0.1l0.1,0l20.9-17.2L68.4,172.3C68.3,172.3,68.4,172.3,68.4,172.3z"/>
</g>
</svg>
