<?xml version="1.0" encoding="utf-8"?>
<!-- Generator: Adobe Illustrator 19.0.0, SVG Export Plug-In . SVG Version: 6.00 Build 0)  -->
<svg version="1.1" id="Warstwa_1" xmlns="http://www.w3.org/2000/svg" xmlns:xlink="http://www.w3.org/1999/xlink" x="0px" y="0px"
	 viewBox="0 0 200 400" style="enable-background:new 0 0 200 400;" xml:space="preserve">
<style type="text/css">
	.st0{fill:#102738;}
	.st1{fill:#00B19C;}
	.st2{fill:#D5385F;}
	.st3{fill:#FFFFFF;}
</style>
<g id="XMLID_2_">
	<g id="XMLID_47_">
		<path id="XMLID_52_" class="st0" d="M109,34.3C109,34.3,109,34.3,109,34.3c0.1,0.1,0.1,0.2,0.1,0.4c0,0.5-0.4,0.8-0.8,0.8
			c-0.3,0-0.5-0.1-0.6-0.3c-0.1,0.2-0.1,0.4-0.1,0.6c0,0.8,0.7,1.5,1.5,1.5c0.8,0,1.5-0.7,1.5-1.5C110.5,35,109.9,34.3,109,34.3z"/>
		<path id="XMLID_48_" class="st1" d="M114.9,34.8c-1.4-4.3-5.4-7.5-10.2-7.5c-5.5,0-10,4.1-10.7,9.4l0,0
			c-4.4,7.5-21.5,3.5-24.5,1.9C74.7,50.3,82.1,56,89.4,57.6c2.5,1.3,5.3,2.1,8.3,2.1c0.3,0,0.6,0,0.9,0l-1.5,2.5l-3.1,1l0.3,0.8l3-1
			l1.4,1.5l0.6-0.6l-1.4-1.4l1.7-2.9c1.2-0.1,2.3-0.4,3.4-0.7l3.2,4.1l-2.7,1l0.3,0.8l3.1-1.1l2.8,1.3l0.3-0.7l-2.9-1.3l-3.3-4.3
			c6.7-2.5,11.6-8.9,11.6-16.5c0.1-0.3,0.2-0.5,0.2-0.7c0.1-0.4,4.7-5,4.7-5L114.9,34.8z M96.2,55C92.6,55,84,49.5,84,48.3
			C84,47,92.6,42,96.2,42c3.6,0,6.5,2.9,6.5,6.5C102.7,52,99.8,55,96.2,55z M108.8,38.8c-1.6,0-3-1.3-3-3c0-1.6,1.3-3,3-3
			c1.6,0,3,1.3,3,3C111.8,37.4,110.5,38.8,108.8,38.8z"/>
	</g>
	<g id="XMLID_3_">
		<g id="XMLID_5_">
			<path id="XMLID_25_" class="st2" d="M159.3,355.3V111.5H157V92.4c11.9-14.5-29.6-29.6-57.1-29.6c-27.5,0-69,15.1-57.1,29.6v19.1
				h-2.6v243.8h-8.5v17.4h136v-17.4H159.3z M77,324.4H61.3v-31.1H77V324.4z M77,287.8H61.3v-24H77V287.8z M77,258.2H61.3v-24H77
				V258.2z M77,228.7H61.3v-24H77V228.7z M77,199.1H61.3v-24H77V199.1z M77,169.6H61.3v-31.1H77V169.6z M117,324.4H82.5v-31.1H117
				V324.4z M117,287.8H82.5v-24H117V287.8z M117,258.2H82.5v-24H117V258.2z M117,228.7H82.5v-24H117V228.7z M117,199.1H82.5v-24H117
				V199.1z M117,169.6H82.5v-31.1H117V169.6z M138.2,324.4h-15.7v-31.1h15.7V324.4z M138.2,287.8h-15.7v-24h15.7V287.8z
				 M138.2,258.2h-15.7v-24h15.7V258.2z M138.2,228.7h-15.7v-24h15.7V228.7z M138.2,199.1h-15.7v-24h15.7V199.1z M138.2,169.6h-15.7
				v-31.1h15.7V169.6z M142.3,107.6H57.2V94.8h85.2V107.6z"/>
			<rect id="XMLID_24_" x="61.3" y="293.3" class="st3" width="15.7" height="31.1"/>
			<rect id="XMLID_23_" x="82.5" y="293.3" class="st3" width="34.5" height="31.1"/>
			<rect id="XMLID_22_" x="122.5" y="293.3" class="st3" width="15.7" height="31.1"/>
			<rect id="XMLID_21_" x="122.5" y="263.8" class="st3" width="15.7" height="24"/>
			<rect id="XMLID_20_" x="82.5" y="263.8" class="st3" width="34.5" height="24"/>
			<rect id="XMLID_19_" x="61.3" y="263.8" class="st3" width="15.7" height="24"/>
			<rect id="XMLID_18_" x="61.3" y="234.2" class="st3" width="15.7" height="24"/>
			<rect id="XMLID_17_" x="82.5" y="234.2" class="st3" width="34.5" height="24"/>
			<rect id="XMLID_16_" x="122.5" y="234.2" class="st3" width="15.7" height="24"/>
			<rect id="XMLID_15_" x="122.5" y="204.7" class="st3" width="15.7" height="24"/>
			<rect id="XMLID_14_" x="82.5" y="204.7" class="st3" width="34.5" height="24"/>
			<rect id="XMLID_13_" x="61.3" y="204.7" class="st3" width="15.7" height="24"/>
			<rect id="XMLID_12_" x="61.3" y="175.1" class="st3" width="15.7" height="24"/>
			<rect id="XMLID_11_" x="82.5" y="175.1" class="st3" width="34.5" height="24"/>
			<rect id="XMLID_10_" x="122.5" y="175.1" class="st3" width="15.7" height="24"/>
			<rect id="XMLID_9_" x="122.5" y="138.4" class="st3" width="15.7" height="31.1"/>
			<rect id="XMLID_8_" x="82.5" y="138.4" class="st3" width="34.5" height="31.1"/>
			<rect id="XMLID_7_" x="61.3" y="138.4" class="st3" width="15.7" height="31.1"/>
			<rect id="XMLID_6_" x="57.2" y="94.8" class="st3" width="85.2" height="12.8"/>
		</g>
		<g id="Layer_2_2_">
			<path id="XMLID_4_" class="st0" d="M92.6,105.3c2,0,5.6-1,7.1-4.1c1.5,3,5.1,4.1,7.1,4.1c6.6,0,7.6-4.6,7.6-4.6
				c-0.5,0.5-1.5,1-3,1c-2.5,0-3-4.6-6.6-4.6c-3.6,0-5.1,2.5-5.1,2.5s-1.5-2.5-5.1-2.5c-3.6,0-4.1,4.6-6.6,4.6c-1.5,0-2.5-0.5-3-1
				C85,100.7,86,105.3,92.6,105.3z"/>
		</g>
	</g>
</g>
</svg>
