<?xml version="1.0" encoding="utf-8"?>
<!-- Generator: Adobe Illustrator 19.0.0, SVG Export Plug-In . SVG Version: 6.00 Build 0)  -->
<svg version="1.1" id="Warstwa_1" xmlns="http://www.w3.org/2000/svg" xmlns:xlink="http://www.w3.org/1999/xlink" x="0px" y="0px"
	 viewBox="0 0 120 110" style="enable-background:new 0 0 120 110;" xml:space="preserve">
<style type="text/css">
	.st0{fill:#102738;}
</style>
<path id="XMLID_2_" class="st0" d="M9.2,29.1c0,6.9,5.7,13.2,14.8,17.7c-0.2-4.6-0.6-9.8-1.2-15.6l0-0.5l0.2-0.5
	c0.2-0.5,6.1-12.1,36.7-12.1c1,0,1.9,0.8,1.9,1.9c0,0.1,0,0.1,0,0.2c-0.1,1-0.9,1.7-1.8,1.7c0,0,0,0,0,0c-1.4,0-2.7,0-4,0.1
	c-21.5,0.8-27.9,7.8-29.1,9.5c0.6,6.4,1,12,1.2,17c0.9,22.2-2,32.3-3.7,38.2c-1.5,5.2-1.7,6.1,1.9,9.7c6.9,6.9,21.8,8.9,29.7,9.5
	c1.3,0.1,2.5,0.1,3.3,0.2c1.1,0,1.9,0,2,0v0c8.8,0.1,26-0.8,33.6-8.3c9.3-9.3-3.2-6.9-1.2-50.3c9.9-4.6,16.2-11.1,16.2-18.3
	c0-13.8-22.5-24.9-50.2-24.9C31.7,4.1,9.2,15.3,9.2,29.1z M92,87.6c-0.4,0.9-1.6,1.3-2.5,0.9c-0.1,0-1.7-0.8-4.4-1.7
	c-5-1.7-13.8-4.1-24.3-4.4c-1.6,0-3.3,0-4.9,0.1c-6.5,0.3-13.5,1.5-20.6,4.3c-1.3,0.5-2.6,1.1-4,1.7c-0.9,0.5-2.1,0.1-2.5-0.9
	c-0.4-0.9-0.1-2.1,0.9-2.5c9-4.3,17.9-6.1,26.1-6.5c1.2-0.1,2.3-0.1,3.5-0.1c0.5,0,0.9,0,1.4,0c16.9,0.3,29.6,6.1,30.4,6.5
	C92,85.5,92.4,86.7,92,87.6z"/>
</svg>
