<?xml version="1.0" encoding="utf-8"?>
<!-- Generator: Adobe Illustrator 19.0.0, SVG Export Plug-In . SVG Version: 6.00 Build 0)  -->
<svg version="1.1" id="Warstwa_1" xmlns="http://www.w3.org/2000/svg" xmlns:xlink="http://www.w3.org/1999/xlink" x="0px" y="0px"
	 viewBox="0 0 800 150" style="enable-background:new 0 0 800 150;" xml:space="preserve">
<style type="text/css">
	.st0{fill:#A8B1DA;}
	.st1{fill:none;}
	.st2{fill:#F05271;}
	.st3{fill:#D5385F;}
</style>
<path id="MobileMe_3_" class="st0" d="M195.8,37.9c0-0.5-0.1-1-0.1-1.4c0-11.6,6.7-22.5,20.8-22.5c11.6,0,15.8,6.7,19,14
	c1.8-1.6,4.2-2.5,6.7-2.5c5.8,0,10.4,4.7,10.4,10.5c0,0.6-0.1,1.2-0.2,1.8c7.9,1.3,13.9,8.1,13.9,16.4c0,9.1-7.4,16.6-16.4,16.6
	h-50.9c-9.1,0-16.4-7.4-16.4-16.6C182.6,46.2,188.3,39.5,195.8,37.9z"/>
<g id="XMLID_2_">
	<path id="XMLID_11_" class="st1" d="M534,37.2c1.3,0.4,2.7,0.7,4.1,1.1C536.7,37.9,535.4,37.6,534,37.2c-5.8-1.6-11.5-3-17.1-4.4
		C522.5,34.2,528.2,35.7,534,37.2z"/>
	<path id="XMLID_10_" class="st1" d="M217.2,60.6c0.1,0,0.1,0,0.2,0C217.3,60.7,217.2,60.7,217.2,60.6z"/>
	<path id="XMLID_9_" class="st1" d="M500.7,71c6.4,1.6,14.9,2.4,22.6,2.9C515.6,73.4,507.1,72.5,500.7,71
		C352.9,91.1,251,69.7,217.3,60.7C251,69.7,352.9,91.1,500.7,71z"/>
	<path id="XMLID_8_" class="st2" d="M543.7,64.1v10.3c8.3-2.3,16.8-4.8,25.5-7.4c0,0,4.1-3.8,8.8-4.9c-0.5-1.6-0.7-3.2-0.7-4.7
		C565.7,59.9,554.8,62.1,543.7,64.1z"/>
	<path id="XMLID_7_" class="st2" d="M534,37.2V5.4h-16.9l-26.8,21.2c5.6,1.2,11.4,2.6,17.2,3.9c3.1,0.7,6.3,1.5,9.4,2.3
		C522.5,34.2,528.2,35.7,534,37.2z"/>
	<path id="XMLID_6_" class="st2" d="M205.1,57.1L205.1,57.1L205.1,57.1C205.1,57.1,205.1,57.1,205.1,57.1l372.1,0v-0.3
		C519.5,44.3,467.1,38.1,421,35.9C286.5,29.5,206.3,56.7,205.1,57.1z"/>
	<path id="XMLID_5_" class="st2" d="M523.3,73.8c-7.8-0.5-16.2-1.3-22.6-2.9C352.9,91.1,251,69.7,217.3,60.7c0,0,0,0,0,0
		c-0.1,0-0.1,0-0.2,0c-7.7-2-11.8-3.4-12-3.5C206,58.3,275,149,543.6,74.4c-0.4,0-1.6,0-3.4,0c-2.1,0-5.1-0.1-8.5-0.2
		C529.1,74.1,526.3,74,523.3,73.8z"/>
	<path id="XMLID_4_" class="st3" d="M584.7,52.6c-1.3-0.3-2.8-0.6-4.5-0.8h0l-0.1,0c-0.3-0.1-0.8-0.2-1.2-0.3l-0.2-0.1c0,0,0,0,0,0
		c-0.1,0-0.3-0.1-0.4-0.1c-0.1,0-0.1,0-0.2-0.1h-0.1c0,0-0.1,0.3-0.2,0.8c-4.6-1.2-8.6-4.9-8.6-4.9c-7.9-2.4-15.6-4.6-23.2-6.8
		c-1.3-0.4-2.6-0.7-3.9-1.1c1.3,0.4,2.6,0.7,3.9,1.1V5.4h-12v31.8c1.3,0.4,2.7,0.7,4.1,1.1c-1.4-0.4-2.7-0.7-4.1-1.1
		c-5.8-1.6-11.5-3-17.1-4.4c-3.2-0.8-6.3-1.6-9.4-2.3c-5.8-1.4-11.6-2.7-17.2-3.9C265.6-22.6,205.9,56.1,205.1,57.1l0,0
		c1.1-0.4,81.3-27.6,215.9-21.2c46.1,2.2,98.5,8.3,156.3,20.9v0.3H205.1c0,0,0,0,0,0l0,0c0.3,0.1,4.4,1.5,12,3.5c0.1,0,0.1,0,0.2,0
		c0,0,0,0,0,0c33.7,9,135.5,30.4,283.4,10.3c6.4,1.6,14.9,2.4,22.6,2.9c3,0.2,5.8,0.3,8.4,0.4c3.4,0.1,6.4,0.2,8.5,0.2
		c1.8,0,3,0,3.4,0c0,0,0.1,0,0.1,0V64.1c11.1-2,22-4.3,33.6-6.8c0,1.4,0.2,3,0.7,4.7c0.1,0.2,0.1,0.4,0.2,0.6c0.7-0.1,1.4-0.1,2-0.2
		v15.1h4.5V61.7c7.6-1.7,10.6-4.6,10.6-4.6S592.3,54.3,584.7,52.6z"/>
	<path id="XMLID_3_" class="st3" d="M584.7,36.6h-4.5v15.2c1.6,0.2,3.1,0.5,4.5,0.8V36.6z"/>
</g>
<path id="MobileMe_1_" class="st0" d="M32.5,69c0-0.6-0.1-1.2-0.1-1.8c0-14.1,8.2-27.5,25.4-27.5c14.2,0,19.3,8.2,23.2,17.2
	c2.2-1.9,5.1-3,8.2-3c7,0,12.7,5.7,12.7,12.8c0,0.8-0.1,1.5-0.2,2.2c9.6,1.5,16.9,9.9,16.9,20c0,11.2-9,20.2-20.1,20.2H36.5
	c-11.1,0-20.1-9.1-20.1-20.2C16.4,79,23.3,70.9,32.5,69z"/>
<path id="MobileMe_2_" class="st0" d="M590.8,100.5c0,12.4-10,22.4-22.3,22.4h-68.9c-12.3,0-22.3-10-22.3-22.4
	c0-11.2,8.1-20.5,18.8-22.2c-0.1-0.8-0.2-1.6-0.2-2.4c0-7.9,6.3-14.2,14.1-14.2c3.5,0,6.7,1.3,9.1,3.4c4.4-9.9,10-19,25.8-19
	C564,46,573,60.9,573,76.5c0,0.7,0,1.3-0.1,1.9C583.1,80.6,590.8,89.6,590.8,100.5z"/>
<path id="MobileMe_4_" class="st0" d="M695.2,16.4c0-0.5-0.1-1.1-0.1-1.6c0-12.9,7.4-25,23.1-25c12.9,0,17.5,7.4,21.1,15.6
	c2-1.7,4.6-2.8,7.5-2.8c6.4,0,11.6,5.2,11.6,11.7c0,0.7-0.1,1.3-0.2,2c8.7,1.4,15.4,9,15.4,18.2c0,10.2-8.2,18.4-18.3,18.4h-56.5
	c-10.1,0-18.3-8.2-18.3-18.4C680.6,25.5,686.9,18.1,695.2,16.4z"/>
</svg>
